PathFileType	4	(X/Y/Z)	two_link_01.trc																
DataRate	CameraRate	NumFrames	NumMarkers	Units	OrigDataRate	OrigDataStartFrame	OrigNumFrames												
60	60	38	6	m	60	316	2526												
Frame#	Time	Link2_Marker_1			Link2_Marker_2			Link2_Marker_3			Link1_Marker_1			Link1_Marker_2			Link1_Marker_3		
		X1	Y1	Z1	X2	Y2	Z2	X3	Y3	Z3	X4	Y4	Z4	X5	Y5	Z5	X6	Y6	Z6
																			
316	0.05500617	-0.00128772	0.52140444	0	-0.00128772	0.52140444	0.1	-0.09839201	0.4975139	0	0.06560579	0.24951244	0	0.06560579	0.24951244	0.1	0	0	86.42109036
317	0.05500993	-0.00127736	0.52140543	0	-0.00127736	0.52140543	0.1	-0.09838211	0.49751678	0	0.06561085	0.24951213	0	0.06561085	0.24951213	0.1	0	0	86.41992783
318	0.05502872	-0.00122562	0.5214105	0	-0.00122562	0.5214105	0.1	-0.09833273	0.49753146	0	0.06563567	0.24951057	0	0.06563567	0.24951057	0.1	0	0	86.41422805
319	0.05504751	-0.00117401	0.52141579	0	-0.00117401	0.52141579	0.1	-0.09828355	0.49754662	0	0.06565965	0.24950907	0	0.06565965	0.24950907	0.1	0	0	86.40872135
320	0.05514147	-0.0009179	0.52144556	0	-0.0009179	0.52144556	0.1	-0.09804049	0.49762955	0	0.06576695	0.24950231	0	0.06576695	0.24950231	0.1	0	0	86.38408187
321	0.05561126	0.00031412	0.52167732	0	0.00031412	0.52167732	0.1	-0.09689627	0.49822227	0	0.06598828	0.24948823	0	0.06598828	0.24948823	0.1	0	0	86.33325364
322	0.056	0.00127311	0.52197133	0	0.00127311	0.52197133	0.1	-0.09603742	0.49893523	0	0.06577417	0.24950186	0	0.06577417	0.24950186	0.1	0	0	86.38242431
323	0.05600982	0.00129666	0.52197988	0	0.00129666	0.52197988	0.1	-0.09601669	0.49895574	0	0.06576425	0.24950248	0	0.06576425	0.24950248	0.1	0	0	86.38470181
324	0.05605893	0.0014151	0.52202168	0	0.0014151	0.52202168	0.1	-0.09591215	0.49905633	0	0.06571808	0.24950539	0	0.06571808	0.24950539	0.1	0	0	86.3953044
325	0.05610805	0.00153471	0.52206184	0	0.00153471	0.52206184	0.1	-0.09580597	0.49915353	0	0.06567798	0.24950792	0	0.06567798	0.24950792	0.1	0	0	86.40451126
326	0.05635361	0.00215025	0.52223825	0	0.00215025	0.52223825	0.1	-0.09525099	0.49958882	0	0.06556868	0.24951476	0	0.06556868	0.24951476	0.1	0	0	86.42961139
327	0.057	0.00390858	0.5225139	0	0.00390858	0.5225139	0.1	-0.09360104	0.50033565	0	0.06600769	0.24948698	0	0.06600769	0.24948698	0.1	0	0	86.32879718
328	0.05700605	0.00392597	0.52251523	0	0.00392597	0.52251523	0.1	-0.09358432	0.50033996	0	0.06601672	0.2494864	0	0.06601672	0.2494864	0.1	0	0	86.3267225
329	0.05700986	0.00393691	0.52251606	0	0.00393691	0.52251606	0.1	-0.09357381	0.50034268	0	0.06602238	0.24948604	0	0.06602238	0.24948604	0.1	0	0	86.32542303
330	0.05701929	0.00396393	0.52251817	0	0.00396393	0.52251817	0.1	-0.09354786	0.5003495	0	0.06603622	0.24948515	0	0.06603622	0.24948515	0.1	0	0	86.32224483
331	0.05702871	0.0039909	0.52252033	0	0.0039909	0.52252033	0.1	-0.09352198	0.50035643	0	0.06604982	0.24948427	0	0.06604982	0.24948427	0.1	0	0	86.31912106
332	0.05707583	0.00412488	0.52253197	0	0.00412488	0.52253197	0.1	-0.09339364	0.50039289	0	0.06611429	0.24948012	0	0.06611429	0.24948012	0.1	0	0	86.30431526
333	0.05731142	0.00477328	0.5226106	0	0.00477328	0.5226106	0.1	-0.09277875	0.50061965	0	0.06634793	0.24946492	0	0.06634793	0.24946492	0.1	0	0	86.2506549
334	0.058	0.00646428	0.52303303	0	0.00646428	0.52303303	0.1	-0.09123478	0.5017048	0	0.06618331	0.24947565	0	0.06618331	0.24947565	0.1	0	0	86.28846324
335	0.0580099	0.00648644	0.52304109	0	0.00648644	0.52304109	0.1	-0.09121524	0.50172485	0	0.0661719	0.24947639	0	0.0661719	0.24947639	0.1	0	0	86.2910828
336	0.05805941	0.00659827	0.52308048	0	0.00659827	0.52308048	0.1	-0.09111625	0.50182318	0	0.06611873	0.24947983	0	0.06611873	0.24947983	0.1	0	0	86.30329597
337	0.05810893	0.00671196	0.52311824	0	0.00671196	0.52311824	0.1	-0.09101498	0.50191808	0	0.06607238	0.24948282	0	0.06607238	0.24948282	0.1	0	0	86.31393866
338	0.05835649	0.00730805	0.52328285	0	0.00730805	0.52328285	0.1	-0.09047471	0.50234172	0	0.06594322	0.24949111	0	0.06594322	0.24949111	0.1	0	0	86.34360126
339	0.059	0.00907199	0.5235279	0	0.00907199	0.5235279	0.1	-0.08880904	0.50305098	0	0.06640736	0.24946102	0	0.06640736	0.24946102	0.1	0	0	86.2370059
340	0.05900826	0.00909661	0.52352938	0	0.00909661	0.52352938	0.1	-0.08878526	0.50305649	0	0.06642071	0.24946014	0	0.06642071	0.24946014	0.1	0	0	86.23393943
341	0.05901232	0.00910867	0.52353011	0	0.00910867	0.52353011	0.1	-0.08877362	0.50305921	0	0.06642721	0.24945971	0	0.06642721	0.24945971	0.1	0	0	86.23244745
342	0.05902985	0.00916068	0.52353341	0	0.00916068	0.52353341	0.1	-0.08872343	0.50307123	0	0.06645477	0.24945789	0	0.06645477	0.24945789	0.1	0	0	86.22611684
343	0.05911752	0.00941656	0.52355263	0	0.00941656	0.52355263	0.1	-0.08847736	0.50313743	0	0.06657913	0.24944966	0	0.06657913	0.24944966	0.1	0	0	86.19755317
344	0.05955589	0.01059173	0.52371756	0	0.01059173	0.52371756	0.1	-0.08736793	0.50362015	0	0.06686448	0.24943053	0	0.06686448	0.24943053	0.1	0	0	86.13200737
345	0.06	0.01160586	0.5239994	0	0.01160586	0.5239994	0.1	-0.08644768	0.50436518	0	0.0665817	0.24944949	0	0.0665817	0.24944949	0.1	0	0	86.19696188
346	0.06000996	0.01162664	0.52400696	0	0.01162664	0.52400696	0.1	-0.0864293	0.50438471	0	0.06656895	0.24945034	0	0.06656895	0.24945034	0.1	0	0	86.19989027
347	0.06005976	0.01173193	0.52404383	0	0.01173193	0.52404383	0.1	-0.08633577	0.50448043	0	0.06650946	0.24945428	0	0.06650946	0.24945428	0.1	0	0	86.21355531
348	0.0601264	0.01187675	0.52409066	0	0.01187675	0.52409066	0.1	-0.08620607	0.50460322	0	0.06644158	0.24945876	0	0.06644158	0.24945876	0.1	0	0	86.22914492
349	0.06045964	0.01266767	0.52428252	0	0.01266767	0.52428252	0.1	-0.08548045	0.50512666	0	0.06630407	0.24946779	0	0.06630407	0.24946779	0.1	0	0	86.26072807
350	0.061	0.01418592	0.5244481	0	0.01418592	0.5244481	0.1	-0.084033	0.50565865	0	0.06679639	0.24943512	0	0.06679639	0.24943512	0.1	0	0	86.14764912
351	0.06101031	0.01421764	0.52444957	0	0.01421764	0.52444957	0.1	-0.08400223	0.5056651	0	0.06681417	0.24943393	0	0.06681417	0.24943393	0.1	0	0	86.14356565
352	0.06102062	0.01424926	0.52445109	0	0.01424926	0.52445109	0.1	-0.08397158	0.50567166	0	0.06683167	0.24943275	0	0.06683167	0.24943275	0.1	0	0	86.13954578
353	0.06107218	0.01440555	0.52445961	0	0.01440555	0.52445961	0.1	-0.08382033	0.50570654	0	0.06691415	0.24942717	0	0.06691415	0.24942717	0.1	0	0	86.12059978
